<mxfile host="Electron" agent="Mozilla/5.0 (Macintosh; Intel Mac OS X 10_15_7) AppleWebKit/537.36 (KHTML, like Gecko) draw.io/27.0.9 Chrome/134.0.6998.205 Electron/35.4.0 Safari/537.36" version="27.0.9">
  <diagram name="페이지-1" id="OyjJJTERV7cCQywa0E_3">
    <mxGraphModel dx="2066" dy="1160" grid="1" gridSize="10" guides="1" tooltips="1" connect="1" arrows="1" fold="1" page="1" pageScale="1" pageWidth="827" pageHeight="1169" math="0" shadow="0">
      <root>
        <mxCell id="0" />
        <mxCell id="1" parent="0" />
        <mxCell id="lrYsZZxQVm1P77UOrmg2-5" value="" style="group;rotation=-165;" vertex="1" connectable="0" parent="1">
          <mxGeometry x="379" y="544" width="70" height="80.2527283846108" as="geometry" />
        </mxCell>
        <mxCell id="lrYsZZxQVm1P77UOrmg2-1" value="" style="ellipse;whiteSpace=wrap;html=1;fillColor=#f8cecc;strokeColor=#b85450;rotation=-165;" vertex="1" parent="lrYsZZxQVm1P77UOrmg2-5">
          <mxGeometry x="-1" y="10" width="70" height="70" as="geometry" />
        </mxCell>
        <mxCell id="lrYsZZxQVm1P77UOrmg2-3" value="" style="rounded=0;whiteSpace=wrap;html=1;fillColor=#dae8fc;strokeColor=default;rotation=-150;" vertex="1" parent="lrYsZZxQVm1P77UOrmg2-5">
          <mxGeometry x="41" y="7" width="26.25" height="17.142857142857142" as="geometry" />
        </mxCell>
      </root>
    </mxGraphModel>
  </diagram>
</mxfile>
